<?xml version="1.0" encoding="UTF-8"?>
<!DOCTYPE svg PUBLIC "-//W3C//DTD SVG 1.1//EN" "http://www.w3.org/Graphics/SVG/1.1/DTD/svg11.dtd">
<!-- Creator: CorelDRAW 2020 (64-Bit) -->
<svg xmlns="http://www.w3.org/2000/svg" xml:space="preserve" width="0.763654in" height="0.763654in" version="1.1" style="shape-rendering:geometricPrecision; text-rendering:geometricPrecision; image-rendering:optimizeQuality; fill-rule:evenodd; clip-rule:evenodd"
viewBox="0 0 763.65 763.65"
 xmlns:xlink="http://www.w3.org/1999/xlink"
 xmlns:xodm="http://www.corel.com/coreldraw/odm/2003">
 <defs>
  <style type="text/css">
   <![CDATA[
    .str0 {stroke:#DB7717;stroke-width:13.89;stroke-miterlimit:2.61313}
    .fil2 {fill:none}
    .fil0 {fill:#DB7717}
    .fil3 {fill:white}
    .fil1 {fill:#DB7717;fill-opacity:0.188235}
   ]]>
  </style>
 </defs>
 <g id="Layer_x0020_1">
  <metadata id="CorelCorpID_0Corel-Layer"/>
  <circle class="fil0" cx="381.83" cy="381.83" r="186.85"/>
  <path class="fil1" d="M381.83 6.94c207.04,0 374.88,167.84 374.88,374.88 0,207.04 -167.84,374.88 -374.88,374.88 -207.04,0 -374.88,-167.84 -374.88,-374.88 0,-207.04 167.84,-374.88 374.88,-374.88z"/>
  <circle class="fil2 str0" cx="381.83" cy="381.83" r="374.88"/>
  <g id="_1578598040448">
   <path class="fil3" d="M397.61 357.66c-10.51,-3.78 -20.74,-15.32 -34.17,-11.34 -6.5,1.93 -19.37,20.49 -21.49,26.8 5.09,9 21.61,10.75 20.21,24.11 -8,0.15 -2.76,-6.25 -25.06,-18.11 -5.07,7.06 -20.81,31.48 -20.69,38.83 6.06,5.2 19.5,8.52 13.24,18.21 -6.25,-3.41 -6.78,-8.98 -16.89,-12.6 -7.56,7.84 -17.93,31.81 -14.76,42.43 12.43,3.71 58.74,-19.3 68.3,-28.51 -2.98,-10.28 -13.9,-16.41 -15.83,-20.59 9.57,-6.06 15.35,9.8 23.15,16.62l27.4 -18.02c-14.31,-25.1 -11.72,-10.21 -17.76,-19.08 8.46,-11.86 17.38,9.44 23.24,14.61 26.5,-12.7 2.52,-34.2 -3.02,-47.25 20.77,-15.09 35.06,-2.31 41.44,-19.07l8.54 -1.41c14.36,-27.75 5.67,-11.34 6.21,-28.93 0.48,-15.52 -12.67,-10.83 -14.05,-10.76 -5.54,0.28 -4,-1.06 -8.11,-0.65 -9.28,0.92 -3.36,3.97 -10.68,8.08 -10.7,6 -2.67,3.47 -9.84,9.22 -5.5,4.41 -6.05,1.92 -7.26,11.81 -1.18,9.7 -3.85,20.01 -12.15,25.61z"/>
   <path class="fil3" d="M375.37 304.59l0 19.91c0.15,0.31 15.31,12.55 21.37,13.73l6.51 1.18c2.4,-7.18 -0.31,-9.12 2.72,-16.34 3.38,-8.04 4.47,-4.65 9.11,-10.25 -10.86,-14.06 -25.77,-22.35 -39.71,-8.22z"/>
   <path class="fil3" d="M423.6 361.78c9.45,7.73 -6.26,-3.69 10.81,19.79 8.33,11.45 2.03,6.61 15.04,6.61 6.34,0 12.6,4.61 15.87,-9.28 3.1,-13.2 -1.73,-21.54 -13.69,-29.4 -5.08,3.56 -4.05,5.61 -10.15,9.07 -7.33,4.16 -9.86,2.33 -17.88,3.21z"/>
  </g>
 </g>
</svg>
